<?xml version="1.0" encoding="utf-8"?>
<!-- Generator: Adobe Illustrator 23.1.1, SVG Export Plug-In . SVG Version: 6.00 Build 0)  -->
<svg version="1.1" id="Layer_1" xmlns="http://www.w3.org/2000/svg" xmlns:xlink="http://www.w3.org/1999/xlink" x="0px" y="0px"
	 viewBox="0 0 1489.3 373.3" style="enable-background:new 0 0 1489.3 373.3;" xml:space="preserve">
<style type="text/css">
	.st0{fill:#ffffff;}
	.st1{font-family:'ToppanBunkyuMidashiGothicStdN-ExtraBold-83pv-RKSJ-H';}
	.st2{font-size:53.1581px;}
</style>
<g>
	<g>
		<g>
			<g>
				<g>
					<path class="st0" d="M427.6,108.7c40.7,0,64.1,20.1,64.1,55.6c0,37.3-23.4,58.8-64.1,58.8h-31.8v45.8h-36.2V108.7H427.6z
						 M395.8,192.9h30c20.1,0,31.6-9.2,31.6-27.5c0-17.8-11.4-26.8-31.6-26.8h-30V192.9z"/>
					<path class="st0" d="M514.2,237.8l-12.6,31.1h-37.3l69.6-160.2h37.3l68.4,160.2h-38.7l-12.6-31.1H514.2z M551.5,146.5
						l-25.4,62.3h50.6L551.5,146.5z"/>
					<polygon class="st0" points="685,268.9 648.9,268.9 648.9,218.1 589.6,108.7 626,108.7 666.9,180.6 707,108.7 743.4,108.7 
						685,217.2 					"/>
					<path class="st0" d="M834.3,108.7c35.2,0,57.2,15.3,57.2,40.1c0,17.4-10.5,30.9-27.7,35.2c20.6,3.9,33.4,19.4,33.4,40.5
						c0,27.5-23.1,44.4-60.4,44.4h-76.2V108.7H834.3z M796.8,173.2h35.7c13.5,0,22-6.6,22-17.9c0-11-8.5-17.2-22-17.2h-35.7V173.2z
						 M796.8,239.4h35.7c17.2,0,27.5-7.1,27.5-19.5c0-11.7-10.3-18.8-27.5-18.8h-35.7V239.4z"/>
					<path class="st0" d="M941.5,237.8l-12.6,31.1h-37.3l69.6-160.2h37.3l68.4,160.2h-38.7l-12.6-31.1H941.5z M978.8,146.5
						l-25.4,62.3h50.6L978.8,146.5z"/>
					<polygon class="st0" points="1184.1,268.9 1106.5,166.1 1106.5,268.9 1071.9,268.9 1071.9,108.7 1104.9,108.7 1182.7,211.7 
						1182.7,108.7 1217.1,108.7 1217.1,268.9 					"/>
					<polygon class="st0" points="1286,203.7 1262.9,229.3 1262.9,268.9 1226.8,268.9 1226.8,108.7 1262.9,108.7 1262.9,181.5 
						1329.5,108.7 1371.4,108.7 1311.2,175.5 1375.5,268.9 1332.1,268.9 					"/>
				</g>
			</g>
			<polygon class="st0" points="165.4,28.7 26.7,108.8 26.7,269 165.4,349 165.4,319.3 165.4,301 165.4,188.9 123.8,164.9 
				123.8,277 68.3,244.9 68.3,219.9 68.3,132.8 165.4,76.8 262.4,132.8 207,164.9 207,212.9 262.4,180.9 262.4,223.5 262.4,244.9 
				262.4,293 304.1,269 304.1,156.9 304.1,125.3 304.1,108.8 			"/>
		</g>
	</g>
	<g>
		<text transform="matrix(1 0 0 1 1387.4121 269.4725)" class="st0 st1 st2">TM</text>
	</g>
</g>
</svg>
